<?xml version="1.0" encoding="UTF-8" standalone="no"?>
<!-- Created with Inkscape (http://www.inkscape.org/) -->

<svg
   xmlns:dc="http://purl.org/dc/elements/1.1/"
   xmlns:cc="http://creativecommons.org/ns#"
   xmlns:rdf="http://www.w3.org/1999/02/22-rdf-syntax-ns#"
   xmlns:svg="http://www.w3.org/2000/svg"
   xmlns="http://www.w3.org/2000/svg"
   xmlns:sodipodi="http://sodipodi.sourceforge.net/DTD/sodipodi-0.dtd"
   xmlns:inkscape="http://www.inkscape.org/namespaces/inkscape"
   width="343pt"
   height="340pt"
   id="svg3012"
   version="1.1"
   inkscape:version="0.48.1 "
   sodipodi:docname="New document 2">
  <defs
     id="defs3014" />
  <sodipodi:namedview
     pagecolor="#ffffff"
     bordercolor="#666666"
     borderopacity="1.0"
     inkscape:pageopacity="0.0"
     inkscape:pageshadow="2"
     inkscape:zoom="0.8"
     inkscape:cx="170.04167"
     inkscape:cy="210"
     inkscape:document-units="pt"
     inkscape:current-layer="layer1"
     id="namedview3016"
     showgrid="false"
     inkscape:window-width="1125"
     inkscape:window-height="758"
     inkscape:window-x="200"
     inkscape:window-y="200"
     inkscape:window-maximized="0" />
  <metadata
     id="metadata3018">
    <rdf:RDF>
      <cc:Work
         rdf:about="">
        <dc:format>image/svg+xml</dc:format>
        <dc:type
           rdf:resource="http://purl.org/dc/dcmitype/StillImage" />
        <dc:title></dc:title>
      </cc:Work>
    </rdf:RDF>
  </metadata>
  <g
     inkscape:label="Layer 1"
     inkscape:groupmode="layer"
     id="layer1">
    <path
       style="fill:#f00040;fill-rule:evenodd"
       inkscape:connector-curvature="0"
       id="path8"
       d="m 336.12549,233.27556 1.69015,-0.44144 1.6885,-0.45388 1.68557,-0.46589 1.68266,-0.47791 1.6785,-0.48992 1.67433,-0.50236 1.66933,-0.51394 1.66433,-0.52595 1.65767,-0.53797 1.65142,-0.54955 1.64393,-0.56156 1.63601,-0.57314 1.6281,-0.5843 1.61894,-0.59631 1.60977,-0.60746 1.59936,-0.61819 1.58895,-0.62978 1.57811,-0.64092 1.56604,-0.65122 1.55397,-0.66238 1.54146,-0.67267 1.52814,-0.68297 1.51439,-0.69369 1.49982,-0.70313 1.48524,-0.71343 1.46983,-0.72287 1.454,-0.7323 1.43776,-0.74174 1.42109,-0.75075 1.40361,-0.75976 1.3857,-0.76834 1.36736,-0.77692 1.34865,-0.78507 1.32988,-0.79279 1.30988,-0.80051 1.2895,-0.80824 1.26906,-0.81553 1.24825,-0.82239 1.22703,-0.82926 1.20492,-0.83569 1.18245,-0.8417 1.15995,-0.8477 1.13705,-0.85328 1.11331,-0.85886 1.08956,-0.86358 1.06582,-0.86829 1.04083,-0.87302 1.01584,-0.8773 0.99044,-0.88074 0.96544,-0.8846 0.93879,-0.8876 0.91297,-0.8906 0.88632,-0.89318 0.85966,-0.89532 0.83257,-0.89747 0.80469,-0.89919 0.77719,-0.90047 0.74927,-0.90133 0.72096,-0.90175 0.69264,-0.90219 0.6639,-0.90219 0.63517,-0.90176 0.606,-0.9009 0.57644,-0.89961 0.54729,-0.89875 0.51771,-0.89661 0.48772,-0.89447 0.45731,-0.89189 0.42776,-0.88932 0.39733,-0.88588 0.36694,-0.88288 0.33612,-0.8786 0.30571,-0.8743 0.27489,-0.87001 0.24448,-0.86486 0.21325,-0.85972 0.18242,-0.85414 0.15161,-0.84813 0.12037,-0.8417 0.0895,-0.83526 0.0583,-0.8284 0.0275,-0.82111 -0.004,-0.81338 -0.0346,-0.80524 -0.0658,-0.79708 -0.0966,-0.7885 -0.12745,-0.77906 -0.15827,-0.77049 -0.18951,-0.76019 -0.21991,-0.75075 -0.25032,-0.74045 -0.28113,-0.72973 -0.31112,-0.719 -0.34153,-0.70785 -0.37152,-0.69627 -0.40193,-0.68468 -0.43149,-0.67225 -0.46106,-0.66023 -0.49065,-0.64779 -0.5202,-0.63449 -0.54895,-0.62162 -0.57768,-0.60832 -0.60685,-0.59417 -0.63474,-0.58086 -0.66349,-0.56628 -0.69097,-0.5517 -0.71887,-0.53753 -0.74637,-0.5221 -0.77386,-0.5075 -0.8001,-0.49164 -0.82717,-0.47619 -0.85341,-0.46074 -0.87923,-0.44488 -0.90505,-0.42814 -0.93005,-0.41227 -0.95545,-0.39554 -0.98002,-0.3788 -1.0046,-0.36208 -1.02834,-0.34491 -1.05166,-0.32819 -1.07541,-0.31017 -1.09789,-0.29343 -1.12038,-0.27542 -1.14288,-0.25783 -1.16412,-0.23981 -1.18535,-0.22222 -1.20661,-0.20421 -1.22659,-0.18575 -1.247,-0.16817 -1.26616,-0.14929 -1.28573,-0.13128 -1.30407,-0.11282 -1.32239,-0.0948 -1.34029,-0.0759 -1.35779,-0.0575 -1.37404,-0.039 -1.39111,-0.0206 -1.40651,-0.003 -1.42236,0.0163 -1.43692,0.0352 -1.45192,0.0536 -1.46566,0.0716 -1.47899,0.0905 -1.49191,0.10854 -1.50481,0.12698 -1.51647,0.14544 -1.52815,0.16344 -1.53938,0.18147 -1.54938,0.19949 -1.55979,0.21707 -1.56896,0.23552 -1.5777,0.25268 -1.58645,0.27027 -1.59436,0.28786 -1.60186,0.30502 -1.60852,0.32218 -1.61477,0.33934 -1.62102,0.35564 -1.62601,0.37237 -1.63102,0.3891 -1.63518,0.40498 -1.63851,0.42128 -1.64226,0.43715 -1.64517,0.45259 -1.64685,0.46761 -1.64892,0.48349 -1.64976,0.49764 -1.65059,0.51265 -1.651,0.52724 -1.65017,0.54097 -1.64976,0.55513 -1.64809,0.56842 -1.64643,0.58173 -1.64392,0.59502 -1.64101,0.60746 -1.63768,0.61991 -1.63393,0.63192 -1.62976,0.6435 -1.62477,0.65551 -1.61976,0.66581 -1.61353,0.67696 -1.60769,0.68726 -1.60103,0.69755 -1.59352,0.70699 -1.58603,0.716 -1.57854,0.72544 -1.56937,0.73359 -1.56105,0.74217 -1.55146,0.74947 -1.54146,0.75718 -1.53147,0.76405 -1.52064,0.77091 -1.50982,0.77692 -1.49857,0.7825 -1.48648,0.78807 -1.47441,0.79279 -1.46192,0.79751 -1.44858,0.80138 -1.43568,0.80523 -1.42151,0.80866 -1.40777,0.81124 -1.39362,0.81339 -1.37861,0.81553 -1.36362,0.81681 -1.34821,0.81768 -1.33239,0.81853 -1.31655,0.81853 -1.30031,0.8181 -1.28324,0.81725 -1.26699,0.81596 -1.2495,0.81467 -1.23201,0.81209 -1.21452,0.80953 -1.1966,0.80609 -1.17827,0.80309 -1.15996,0.79836 -1.14163,0.79451 -1.12246,0.78893 -1.10373,0.78379 -1.08415,0.7782 -1.06499,0.77134 -1.04499,0.76491 -1.02585,0.75719 -1.00543,0.74989 -0.98544,0.74131 -0.96544,0.73316 -0.94504,0.72372 -0.92463,0.71386 -0.9038,0.70442 -0.8834,0.69369 -0.86257,0.68254 -0.84133,0.67181 -0.82093,0.65938 -0.79968,0.64779 -0.77885,0.63449 -0.75761,0.62205 -0.73637,0.60832 -0.71514,0.59417 -0.6943,0.58 -0.67306,0.56543 -0.65183,0.54997 -0.63017,0.53454 -0.60975,0.51866 -0.5881,0.50236 -0.56727,0.48563 -0.54604,0.46846 -0.5252,0.45088 -0.50397,0.43286 -0.48355,0.41485 -0.46273,0.39639 -0.44191,0.37752 -0.42108,0.35822 -0.40067,0.33848 -0.38069,0.31832 -0.36027,0.29858 -0.33986,0.27756 -0.32029,0.25697 -0.30029,0.23595 -0.28073,0.21408 -0.26114,0.19262 -0.24199,0.17031 -0.22283,0.148 -0.20367,0.1257 -0.18492,0.10253 -0.1666,0.0798 -0.14786,0.0562 -0.13037,0.033 -0.11203,0.009 -0.0946,-0.015 -0.0766,-0.039 -0.06,-0.0635 -0.0429,-0.0879 -0.0267,-0.1124 -0.01,-0.13771 0.006,-0.16259 0.022,-0.18747 0.0375,-0.21322 0.0529,-0.23809 0.0679,-0.26427 0.0829,-0.28957 0.0971,-0.31532 0.11078,-0.34105 0.12495,-0.3668 0.13828,-0.39339 0.15161,-0.4187 0.1641,-0.4453 0.1766,-0.47105 0.18867,-0.49721 0.20034,-0.52338 0.212,-0.54955 0.22282,-0.57571 0.23408,-0.60146 0.24364,-0.62763 0.25449,-0.65422 0.26364,-0.67954 0.27322,-0.70571 0.28198,-0.73144 0.2903,-0.75719 0.29863,-0.78292 0.30655,-0.80867 0.31403,-0.83354 0.32112,-0.85929 0.3278,-0.8846 0.33402,-0.90905 0.33987,-0.93436 0.3457,-0.95924 0.35069,-0.98327 0.35569,-1.00772 0.35986,-1.03218 0.36401,-1.05577 0.36736,-1.07979 0.3711,-1.10296 0.3736,-1.12655 0.3761,-1.14929 0.3786,-1.17203 0.37985,-1.19477 0.38151,-1.21664 0.38235,-1.23852 0.38318,-1.26041 0.38318,-1.28142 0.38359,-1.30287 0.38277,-1.32304 0.38151,-1.34363 0.38069,-1.36336 0.37901,-1.38309 0.37735,-1.4024 0.37443,-1.42171 0.37236,-1.43972 0.36902,-1.45818 0.36567,-1.47576 0.36236,-1.49292 0.35777,-1.51008 0.35361,-1.52638 0.34903,-1.54268 0.34403,-1.55813 0.33863,-1.57314 0.33277,-1.58859 0.32695,-1.60231 0.3207,-1.61605 0.31405,-1.62977 0.30697,-1.64264 0.29988,-1.65508 0.29238,-1.6671 0.28446,-1.67824 0.27657,-1.68941 0.26821,-1.69969 0.25948,-1.70957 0.25117,-1.71943 0.24157,-1.72758 0.23198,-1.7366 0.22284,-1.74388 0.21282,-1.75161 0.20284,-1.75804 0.19243,-1.76448 0.182,-1.77005 0.17117,-1.7752 0.16035,-1.77992 0.14912,-1.78336 0.13786,-1.78721 0.1262,-1.79022 0.11455,-1.79236 0.10287,-1.79408 0.0908,-1.79536 0.0787,-1.7958 0.0662,-1.79579 0.0537,-1.79537 0.0413,-1.7945 0.0283,-1.79237 0.0158,-1.79021 0.003,-1.78722 -0.01,-1.784207 -0.0238,-1.779921 -0.0367,-1.775202 -0.05,-1.770483 -0.0633,-1.764477 -0.0771,-1.758042 -0.0904,-1.751178 -0.10412,-1.743456 -0.11746,-1.735734 -0.1312,-1.726725 -0.14494,-1.718145 -0.15869,-1.707849 -0.172,-1.697553 -0.18577,-1.686828 -0.19992,-1.675674 -0.21325,-1.663233 -0.22699,-1.650363 -0.24031,-1.637922 -0.25449,-1.623765 -0.26739,-1.609608 -0.28114,-1.595022 -0.29488,-1.579578 -0.3078,-1.563705 -0.32154,-1.547403 -0.33444,-1.530672 -0.34778,-1.513083 -0.36069,-1.495494 -0.3736,-1.476618 -0.38651,-1.458171 -0.39943,-1.438437 -0.41191,-1.418703 -0.424,-1.398111 -0.43649,-1.377519 -0.44899,-1.356069 -0.46065,-1.33419 -0.47272,-1.312311 -0.48439,-1.289145 -0.49606,-1.266408 -0.50729,-1.242813 -0.51813,-1.218789 -0.52979,-1.194336 -0.5402,-1.169454 -0.55061,-1.144143 -0.56144,-1.118832 -0.57144,-1.092663 -0.58143,-1.066065 -0.59102,-1.039896 -0.60059,-1.01244 -0.61018,-0.984984 -0.61891,-0.957528 -0.62767,-0.928785 -0.63641,-0.9009 -0.64475,-0.872157 -0.65265,-0.842556 -0.66056,-0.813813 -0.66766,-0.784212 -0.67556,-0.753753 -0.68223,-0.724152 -0.68889,-0.693693 -0.69514,-0.662805 -0.7018,-0.632346 -0.70721,-0.601029 -0.71305,-0.569712 -0.71805,-0.537966 -0.72346,-0.506649 -0.72762,-0.474474 -0.73222,-0.442728 -0.73637,-0.410553 -0.74011,-0.378378 -0.74388,-0.345774 -0.74636,-0.31317 -0.7497,-0.280137 -0.7515,-0.246818 -0.75429,-0.214929 -0.75637,-0.181896 -0.75761,-0.148863 -0.75927,-0.11583 -0.76012,-0.0828 -0.76052,-0.04976 -0.76096,-0.01673 -0.76094,0.01673 -0.76052,0.04976 -0.76012,0.0828 -0.75927,0.11583 -0.75763,0.148863 -0.75636,0.181896 -0.75428,0.214929 -0.75219,0.247962 -0.7497,0.280137 -0.74637,0.31317 -0.74387,0.345774 -0.74013,0.378378 -0.73637,0.410553 -0.7322,0.442728 -0.72762,0.474474 -0.72347,0.506649 -0.71804,0.537966 -0.71305,0.569712 -0.70722,0.601029 -0.7018,0.632346 -0.69514,0.662805 -0.6889,0.693693 -0.68222,0.724152 -0.67557,0.753753 -0.66764,0.784212 -0.66057,0.813813 -0.65266,0.842556 -0.64474,0.872157 -0.63641,0.9009 -0.62767,0.928785 -0.61891,0.957528 -0.61018,0.984984 -0.60059,1.01244 -0.59101,1.039896 -0.58144,1.066065 -0.57144,1.092663 -0.56144,1.118832 -0.55061,1.144143 -0.5402,1.169454 -0.52979,1.194336 -0.51812,1.218789 -0.50731,1.242813 -0.49604,1.266408 -0.48439,1.289145 -0.47273,1.312311 -0.46065,1.33419 -0.44898,1.356069 -0.43649,1.377519 -0.42401,1.398111 -0.41192,1.418703 -0.39942,1.438437 -0.38651,1.458171 -0.3736,1.476618 -0.36069,1.495494 -0.34777,1.513083 -0.33446,1.530672 -0.32154,1.547403 -0.30779,1.563705 -0.29488,1.579578 -0.28114,1.595022 -0.26739,1.609608 -0.25448,1.623765 -0.24033,1.637922 -0.22698,1.650363 -0.21325,1.663233 -0.19992,1.675674 -0.18576,1.686828 -0.17202,1.697553 -0.15868,1.707849 -0.14494,1.718145 -0.13121,1.726725 -0.11744,1.735734 -0.10413,1.743456 -0.0904,1.751178 -0.0771,1.758042 -0.0633,1.764477 -0.05,1.770483 -0.0367,1.775202 -0.0238,1.779921 -0.01,1.784213 0.003,1.78721 0.0158,1.79022 0.0283,1.79236 0.0413,1.79451 0.0537,1.79536 0.0662,1.7958 0.0787,1.79579 0.0908,1.79537 0.10287,1.79407 0.11453,1.79237 0.12621,1.79021 0.13786,1.78722 0.1491,1.78335 0.16036,1.77992 0.17118,1.7752 0.18201,1.77006 0.19243,1.76447 0.20283,1.75805 0.21283,1.7516 0.22282,1.74389 0.232,1.73659 0.24157,1.72758 0.25114,1.71944 0.25949,1.70956 0.26823,1.6997 0.27655,1.6894 0.28447,1.67825 0.29238,1.66709 0.29988,1.65508 0.30696,1.64265 0.31405,1.62977 0.3207,1.61604 0.32695,1.60231 0.33278,1.58859 0.33862,1.57314 0.34402,1.55813 0.34904,1.54269 0.35361,1.52638 0.35777,1.51008 0.36235,1.49292 0.36569,1.47576 0.36901,1.45817 0.37236,1.43972 0.37443,1.42171 0.37735,1.4024 0.37901,1.3831 0.38069,1.36336 0.38151,1.34363 0.38277,1.32303 0.38359,1.30288 0.38318,1.28142 0.38318,1.2604 0.38235,1.23852 0.38151,1.21665 0.37985,1.19476 0.3786,1.17203 0.3761,1.14929 0.3736,1.12656 0.3711,1.10295 0.36736,1.0798 0.36401,1.05577 0.35986,1.03217 0.35569,1.00772 0.35069,0.98327 0.3457,0.95924 0.33987,0.93437 0.33402,0.90905 0.32779,0.88459 0.32113,0.85929 0.31403,0.83355 0.30655,0.80866 0.29863,0.78293 0.2903,0.75718 0.28197,0.73145 0.27322,0.7057 0.26365,0.67954 0.25448,0.65422 0.24365,0.62763 0.23408,0.60146 0.22282,0.57572 0.212,0.54955 0.20033,0.52338 0.18868,0.49721 0.1766,0.47104 0.1641,0.4453 0.15161,0.41871 0.13828,0.39339 0.12495,0.36679 0.11078,0.34106 0.0971,0.31531 0.0829,0.28958 0.0679,0.26426 0.0529,0.2381 0.0375,0.21321 0.022,0.18747 0.006,0.16259 -0.01,0.13771 -0.0267,0.1124 -0.0429,0.0879 -0.0595,0.0635 -0.0771,0.039 -0.0946,0.015 -0.11204,-0.009 -0.13036,-0.033 -0.14787,-0.0562 -0.1666,-0.0798 -0.18492,-0.10253 -0.20366,-0.1257 -0.22284,-0.14801 -0.24198,-0.17031 -0.26115,-0.19262 -0.28072,-0.21407 -0.30029,-0.23595 -0.3203,-0.25697 -0.33986,-0.27757 -0.36026,-0.29858 -0.38069,-0.31832 -0.40067,-0.33848 -0.42109,-0.35821 -0.4419,-0.37752 -0.46274,-0.3964 -0.48354,-0.41484 -0.50397,-0.43286 -0.52521,-0.45088 -0.54603,-0.46847 -0.56727,-0.48563 -0.5881,-0.50236 -0.60975,-0.51866 -0.63017,-0.53453 -0.65183,-0.54998 -0.67306,-0.56542 -0.6943,-0.58001 -0.71514,-0.59417 -0.73637,-0.60832 -0.75761,-0.62205 -0.77886,-0.63449 -0.79968,-0.64779 -0.82092,-0.65937 -0.84133,-0.67182 -0.86257,-0.68253 -0.8834,-0.6937 -0.9038,-0.70442 -0.92463,-0.71385 -0.94504,-0.72372 -0.96545,-0.73317 -0.98543,-0.74131 -1.00544,-0.74989 -1.02584,-0.75718 -1.045,-0.76491 -1.06498,-0.77134 -1.08416,-0.77821 -1.10372,-0.78378 -1.12246,-0.78893 -1.14163,-0.79451 -1.15996,-0.79837 -1.17828,-0.80309 -1.19659,-0.80609 -1.21452,-0.80952 -1.23201,-0.8121 -1.2495,-0.81467 -1.26699,-0.81596 -1.28324,-0.81724 -1.30032,-0.81811 -1.31654,-0.81853 -1.3324,-0.81853 -1.3482,-0.81767 -1.36362,-0.81682 -1.37861,-0.81553 -1.39362,-0.81338 -1.40777,-0.81124 -1.42152,-0.80867 -1.43567,-0.80523 -1.44858,-0.80137 -1.46192,-0.79751 -1.47441,-0.7928 -1.48649,-0.78807 -1.49856,-0.78249 -1.50982,-0.77692 -1.52064,-0.77092 -1.53147,-0.76405 -1.54147,-0.75718 -1.55145,-0.74946 -1.56105,-0.74217 -1.56937,-0.73359 -1.57812,-0.72544 -1.58645,-0.716 -1.59352,-0.707 -1.60103,-0.69755 -1.60769,-0.68726 -1.61353,-0.67696 -1.61977,-0.66581 -1.62476,-0.65551 -1.62976,-0.6435 -1.63393,-0.63192 -1.63768,-0.6199 -1.64101,-0.60747 -1.64393,-0.59502 -1.64642,-0.58172 -1.64809,-0.56843 -1.64976,-0.55512 -1.650171,-0.54097 -1.651006,-0.52724 -1.650589,-0.51266 -1.649757,-0.49764 -1.648923,-0.48348 -1.646841,-0.46761 -1.645175,-0.4526 -1.64226,-0.43715 -1.638511,-0.42128 -1.635179,-0.40497 -1.631014,-0.3891 -1.626016,-0.37238 -1.621018,-0.35564 -1.61477,-0.33934 -1.608523,-0.32218 -1.601859,-0.30501 -1.594362,-0.28786 -1.586449,-0.27027 -1.577702,-0.25268 -1.568955,-0.23553 -1.559793,-0.21707 -1.54938,-0.19948 -1.539384,-0.18147 -1.528138,-0.16345 -1.516477,-0.14543 -1.504398,-0.12699 -1.492319,-0.10853 -1.478992,-0.0905 -1.465663,-0.0716 -1.451919,-0.0536 -1.436925,-0.0352 -1.422348,-0.0163 -1.40652,0.003 -1.390986,0.0206 -1.374367,0.039 -1.357581,0.0575 -1.340213,0.0759 -1.322513,0.0948 -1.304187,0.11283 -1.285485,0.13127 -1.266285,0.14929 -1.246876,0.16817 -1.226801,0.18576 -1.206309,0.2042 -1.185525,0.22222 -1.164285,0.23981 -1.142543,0.25783 -1.120551,0.27542 -1.097977,0.29344 -1.075112,0.31016 -1.052037,0.32819 -1.028255,0.34492 -1.004431,0.36207 -0.980025,0.37881 -0.955327,0.39554 -0.930419,0.41227 -0.904887,0.42814 -0.879357,0.44487 -0.853367,0.46075 -0.826961,0.47619 -0.800388,0.49163 -0.773607,0.50751 -0.746368,0.52252 -0.718921,0.53711 -0.69114,0.55169 -0.663193,0.56628 -0.634996,0.58044 -0.606673,0.59459 -0.577853,0.60832 -0.548988,0.62163 -0.519917,0.63449 -0.490651,0.64779 -0.461232,0.66023 -0.4314524,0.67267 -0.4017559,0.68425 -0.3716569,0.69627 -0.3415577,0.70785 -0.3113616,0.71901 -0.280957,0.72972 -0.2504414,0.74046 -0.2198426,0.75075 -0.1892298,0.76019 -0.1584228,0.77048 -0.1275878,0.77949 -0.096628,0.78808 -0.065668,0.79708 -0.034708,0.80523 -0.00416,0.81339 0.02735,0.8211 0.058449,0.8284 0.089409,0.83483 0.1205073,0.84213 0.1514949,0.84813 0.182427,0.85414 0.2134424,0.85972 0.2441384,0.86486 0.2750566,0.87002 0.3057666,0.8743 0.3362682,0.87859 0.3668809,0.88288 0.3972855,0.88589 0.4274817,0.88931 0.4576784,0.89189 0.487679,0.89447 0.517474,0.89661 0.547156,0.89875 0.576644,0.89962 0.605966,0.9009 0.634996,0.90176 0.664026,0.90218 0.692556,0.90219 0.721045,0.90176 0.749325,0.90133 0.777147,0.90047 0.80497,0.89918 0.832375,0.89747 0.859531,0.89532 0.886271,0.89318 0.912926,0.8906 0.939166,0.88761 0.965114,0.88459 0.990686,0.88074 1.015927,0.87731 1.040876,0.87301 1.065448,0.8683 1.089648,0.86357 1.113429,0.85886 1.136962,0.85328 1.159911,0.84771 1.182693,0.84169 1.204934,0.8357 1.226718,0.82925 1.248209,0.8224 1.269117,0.81553 1.289775,0.80823 1.309893,0.80052 1.32951,0.79279 1.348752,0.78507 1.367453,0.77692 1.385778,0.76834 1.403522,0.75975 1.421098,0.75075 1.437758,0.74175 1.454002,0.7323 1.469828,0.72286 1.485239,0.71343 1.499817,0.70313 1.514394,0.69369 1.528138,0.68297 1.541467,0.67267 1.553961,0.66238 1.56604,0.65122 1.578119,0.64093 1.588947,0.62977 1.59936,0.61819 1.609773,0.60746 1.618935,0.59631 1.628099,0.5843 1.636012,0.57315 1.643925,0.56156 1.651423,0.54955 1.65767,0.53796 1.664334,0.52596 1.669332,0.51394 1.67433,0.50236 1.678495,0.48991 1.68266,0.47791 1.685575,0.46589 1.688491,0.45389 1.690157,0.44144 1.69224,0.42943 1.692656,0.41698 1.693072,0.40541 1.692654,0.39296 1.69224,0.38053 1.69057,0.36894 1.6885,0.3565 1.68599,0.34491 1.68308,0.33248 1.67932,0.32089 1.67475,0.30888 1.67058,0.2973 1.66475,0.28571 1.65851,0.27413 1.65267,0.26255 1.64517,0.25096 1.63768,0.23981 1.62935,0.22866 1.62102,0.21793 1.61144,0.20678 1.60185,0.19563 1.59145,0.18575 1.58062,0.17503 1.56937,0.16474 1.55771,0.15444 1.5448,0.14457 1.5323,0.13471 1.51857,0.12527 1.50481,0.11583 1.49065,0.10682 1.47566,0.0978 1.46025,0.0888 1.44443,0.0807 1.42817,0.0721 1.41152,0.0639 1.39402,0.0562 1.37696,0.0485 1.3586,0.0408 1.3399,0.0343 1.32113,0.027 1.30157,0.0206 1.2824,0.0143 1.26157,0.007 1.2416,0.003 1.22034,-0.003 1.19909,-0.009 1.17787,-0.0129 1.15538,-0.018 1.1333,-0.0227 1.11038,-0.0262 1.08747,-0.0305 1.06376,-0.0335 1.04083,-0.0369 1.01624,-0.0395 0.99252,-0.0425 0.96755,-0.0442 0.94296,-0.0463 0.91796,-0.0476 0.89256,-0.0493 0.86674,-0.0498 0.84133,-0.0502 0.81508,-0.0511 0.78886,-0.0506 0.76303,-0.0498 0.73552,-0.0498 0.70932,-0.048 0.68222,-0.0472 0.65516,-0.045 0.62766,-0.0429 0.60018,-0.0408 0.5731,-0.0378 0.5452,-0.0347 0.51729,-0.0309 0.48981,-0.0275 0.46148,-0.0236 0.43356,-0.0185 0.40568,-0.0143 0.37776,-0.009 0.34902,-0.003 0.32114,0.003 0.2932,0.009 0.2645,0.015 0.23656,0.0219 0.20825,0.0287 0.18033,0.0365 0.15161,0.0442 0.12412,0.0523 0.0958,0.0605 0.0679,0.0691 0.0404,0.0781 0.0125,0.0875 -0.0154,0.0974 -0.0429,0.10682 -0.0708,0.11754 -0.0979,0.12742 -0.12495,0.13856 -0.15203,0.14972 -0.17867,0.16045 -0.20576,0.17246 -0.23199,0.18447 -0.25823,0.19648 -0.28488,0.20849 -0.31029,0.22137 -0.33612,0.23423 -0.36152,0.24754 -0.38693,0.2604 -0.4115,0.27456 -0.43649,0.28786 -0.46065,0.30201 -0.48523,0.31618 -0.50896,0.33076 -0.53229,0.34534 -0.5556,0.35993 -0.57894,0.37495 -0.60101,0.39039 -0.62391,0.4054 -0.64558,0.42128 -0.66723,0.43672 -0.68806,0.4526 -0.70972,0.46847 -0.7297,0.48434 -0.75012,0.50107 -0.76969,0.51694 -0.78927,0.53325 -0.80801,0.54998 -0.82717,0.56671 -0.84467,0.58344 -0.86298,0.60017 -0.88007,0.6169 -0.89672,0.63406 -0.9138,0.6508 -0.92963,0.66795 -0.94504,0.68511 -0.96003,0.70185 -0.97503,0.71943 -0.98918,0.73616 -1.00335,0.75333 -1.01584,0.77048 -1.02918,0.78764 -1.04166,0.80481 -1.05333,0.82196 -1.06458,0.8387 -1.07581,0.85585 -1.08583,0.87259 -1.09622,0.88932 -1.10539,0.90647 -1.11414,0.92278 -1.12288,0.93994 -1.13039,0.95581 -1.13829,0.97255 -1.14495,0.98884 -1.15121,1.00472 -1.15704,1.02059 -1.16287,1.03689 -1.16745,1.05234 -1.1716,1.06821 -1.17578,1.08322 -1.1787,1.09867 -1.18202,1.11326 -1.18411,1.12827 -1.18536,1.14328 -1.18744,1.15745 -1.18744,1.17159 -1.18827,1.18533 -1.18786,1.19906 -1.18703,1.21278 -1.18536,1.22608 -1.1841,1.23895 -1.18162,1.25183 -1.1787,1.26383 -1.17535,1.27627 -1.17162,1.28829 -1.16745,1.29944 -1.16245,1.31103 -1.15746,1.32175 -1.15161,1.33247 -1.14496,1.34277 -1.13872,1.35264 -1.13162,1.3625 -1.12331,1.37194 -1.1158,1.38052 -1.10706,1.38911 -1.09789,1.39768 -1.08832,1.40497 -1.07831,1.41313 -1.06834,1.41999 -1.05707,1.42642 -1.04583,1.43286 -1.03459,1.43887 -1.02209,1.44444 -1.0096,1.44959 -0.99668,1.45431 -0.98336,1.4586 -0.97002,1.46204 -0.95546,1.46589 -0.94087,1.4689 -0.926295,1.47147 -0.910885,1.47361 -0.895475,1.47533 -0.879232,1.47662 -0.862988,1.47748 -0.846744,1.4779 -0.829252,1.47791 -0.812175,1.47704 -0.794682,1.47619 -0.776356,1.4749 -0.758446,1.47276 -0.740121,1.47018 -0.720961,1.46804 -0.701803,1.46418 -0.682643,1.46031 -0.663068,1.45646 -0.643493,1.45174 -0.623084,1.44658 -0.602675,1.44059 -0.582267,1.43457 -0.561442,1.42814 -0.540201,1.42128 -0.519375,1.41355 -0.498134,1.40541 -0.476476,1.39682 -0.454402,1.38825 -0.432743,1.3788 -0.411086,1.36851 -0.388594,1.35865 -0.36652,1.34748 -0.343613,1.33634 -0.321538,1.32475 -0.29863,1.31274 -0.27614,1.29987 -0.253232,1.28657 -0.230324,1.27327 -0.207417,1.25912 -0.184093,1.24496 -0.161602,1.22998 -0.137862,1.21463 -0.114954,1.19888 -0.09205,1.1828 -0.06873,1.16624 -0.0454,1.14916 -0.0225,1.13179 8.33e-4,1.11398 0.02416,1.09575 0.04665,1.07709 0.07039,1.05817 0.09288,1.03866 0.115787,1.019 0.138694,0.99875 0.161602,0.97825 0.18451,0.95727 0.206584,0.93617 0.229491,0.91445 0.251566,0.89254 0.274057,0.87027 0.296132,0.84762 0.317789,0.82471 0.339864,0.80141 0.361522,0.77799 0.382764,0.75401 0.404421,0.7299 0.425247,0.70549 0.446488,0.6807 0.466896,0.65577 0.487722,0.63058 0.50813,0.60498 0.528122,0.57928 0.547697,0.55332 0.56769,0.52724 0.587265,0.50078 0.606007,0.47413 0.625167,0.44723 0.643909,0.42042 0.661818,0.39318 0.680561,0.36572 0.698054,0.33831 0.715547,0.31064 0.73304,0.2828 0.7497,0.25504 0.76636,0.22685 0.78302,0.19867 0.798847,0.17053 0.814674,0.142 0.830085,0.11383 0.844662,0.0852 0.860072,0.0565 0.873817,0.028 0.888395,-6e-4 0.901725,-0.0292 0.91546,-0.0579 0.92797,-0.0868 0.94087,-0.11526 0.95337,-0.14402 0.96503,-0.17258 0.97669,-0.20133 0.98794,-0.2299 0.99876,-0.25835 1.00877,-0.28678 1.01917,-0.31515 1.02876,-0.34354 1.03834,-0.3716 1.04707,-0.3997 1.05542,-0.42771 1.06374,-0.45543 1.07165,-0.48314 1.07873,-0.51068 1.08583,-0.53814 1.09247,-0.56516 1.09873,-0.59228 1.10455,-0.619 1.10998,-0.64569 1.11455,-0.67207 1.11955,-0.69829 1.12414,-0.72415 1.12747,-0.74993 1.13121,-0.77533 1.13413,-0.80052 1.13704,-0.82531 1.13913,-0.85006 1.14121,-0.87443 1.14288,-0.89833 1.1437,-0.92209 1.14455,-0.94556 1.14538,-0.96851 1.14495,-0.99133 1.14496,-1.01373 1.14412,-1.03574 1.14288,-1.05731 1.14163,-1.07868 1.13954,-1.09952 1.13786,-1.12008 1.13497,-1.14015 1.13246,-1.15993 1.12913,-1.17915 1.12581,-1.19807 1.12162,-1.21652 1.11748,-1.23453 1.11289,-1.25199 1.1083,-1.26907 1.10289,-1.28614 1.09748,-1.30202 1.09164,-1.31746 1.08583,-1.3329 1.07915,-1.34792 1.07248,-1.36207 1.06541,-1.37581 1.05791,-1.38867 1.05083,-1.40197 1.04292,-1.41398 1.03458,-1.426 1.02626,-1.43715 1.01792,-1.44745 1.00876,-1.45774 1.00002,-1.46761 0.99085,-1.47662 0.98087,-1.48476 0.97127,-1.49292 0.96129,-1.50065 0.95086,-1.5075 0.94087,-1.51351 0.93005,-1.51952 0.91921,-1.52467 0.90839,-1.52938 0.89714,-1.53325 0.8859,-1.53711 0.87465,-1.53968 0.86299,-1.54225 0.85091,-1.54397 0.83924,-1.54483 0.82759,-1.54612 0.81509,-1.54569 0.80301,-1.54525 0.79052,-1.5444 0.77802,-1.54269 0.76553,-1.54011 0.75303,-1.53753 0.74054,-1.53411 0.7272,-1.53024 0.71472,-1.52552 0.7018,-1.52081 0.68931,-1.5148 0.67598,-1.50836 0.66265,-1.5015 0.65015,-1.49464 0.63683,-1.48648 0.62393,-1.47791 0.61142,-1.46889 0.59767,-1.45903 0.58519,-1.44917 0.57185,-1.43843 0.55936,-1.42686 0.54603,-1.41527 0.53354,-1.40326 0.52062,-1.38996 0.50771,-1.37709 0.49522,-1.3625 0.48272,-1.34878 0.47023,-1.33333 0.45774,-1.31832 0.44524,-1.30201 0.43358,-1.28571 0.42107,-1.26899 0.40942,-1.25139 0.39735,-1.2338 0.38567,-1.21536 0.37402,-1.19648 0.36319,-1.17761 0.35153,-1.15744 0.34028,-1.13771 0.32945,-1.11668 0.31862,-1.0961 0.30821,-1.07464 0.2978,-1.05277 0.28738,-1.03046 0.27739,-1.00815 0.26781,-0.98498 0.25823,-0.96182 0.24865,-0.93779 0.23949,-0.91377 0.23074,-0.88975 0.22158,-0.86443 0.21366,-0.83999 0.20492,-0.81424 0.197,-0.7885 0.1891,-0.76233 0.182,-0.73617 0.17452,-0.70956 0.16743,-0.68297 0.16078,-0.65551 0.15452,-0.62849 0.14785,-0.6006 0.14203,-0.57271 0.13661,-0.54483 0.1312,-0.51652 0.12578,-0.4882 0.1212,-0.45946 0.11662,-0.43072 0.11245,-0.40154 0.10871,-0.37237 0.10454,-0.3432 0.10163,-0.31403 0.0983,-0.284 0.0958,-0.25482 0.0933,-0.22523 0.0908,-0.19476 0.0891,-0.16517 0.0879,-0.13556 0.0866,-0.10511 0.0853,-0.0755 0.0849,-0.0451 0.0846,-0.015 0.0846,0.015 0.0849,0.0451 0.0853,0.0755 0.0866,0.10511 0.0879,0.13556 0.0891,0.16517 0.0908,0.19476 0.0933,0.22523 0.0958,0.25482 0.0983,0.284 0.10163,0.31403 0.10455,0.3432 0.1087,0.37237 0.11246,0.40154 0.11662,0.43072 0.12119,0.45946 0.12579,0.4882 0.1312,0.51652 0.13661,0.54483 0.14203,0.57271 0.14785,0.6006 0.15452,0.62849 0.16078,0.65551 0.16742,0.68297 0.17452,0.70956 0.18201,0.73617 0.18909,0.76233 0.197,0.7885 0.20492,0.81424 0.21367,0.83999 0.22157,0.86443 0.23075,0.88975 0.23949,0.91377 0.24865,0.93779 0.25823,0.96182 0.26781,0.98498 0.27738,1.00815 0.28739,1.03046 0.29779,1.05277 0.30821,1.07464 0.31863,1.0961 0.32945,1.11668 0.34028,1.13771 0.35153,1.15744 0.36319,1.17761 0.37401,1.19648 0.38568,1.21536 0.39734,1.2338 0.40942,1.25139 0.42108,1.26899 0.43358,1.28571 0.44523,1.30201 0.45774,1.31832 0.47023,1.33333 0.48273,1.34878 0.49521,1.3625 0.50772,1.37709 0.52062,1.38996 0.53354,1.40326 0.54603,1.41527 0.55935,1.42686 0.57186,1.43843 0.58519,1.44917 0.59767,1.45903 0.61142,1.46889 0.62392,1.47791 0.63683,1.48648 0.65015,1.49464 0.66265,1.5015 0.67599,1.50836 0.68931,1.5148 0.7018,1.52081 0.71471,1.52552 0.72721,1.53024 0.74054,1.53411 0.75303,1.53753 0.76552,1.54011 0.77803,1.54269 0.79052,1.5444 0.80301,1.54525 0.81508,1.54569 0.8276,1.54612 0.83924,1.54483 0.85091,1.54397 0.86299,1.54225 0.87465,1.53968 0.88589,1.53711 0.89715,1.53325 0.90838,1.52938 0.91922,1.52467 0.93004,1.51952 0.94088,1.51351 0.95086,1.5075 0.96128,1.50065 0.97128,1.49292 0.98086,1.48476 0.99086,1.47662 1.00001,1.46761 1.00877,1.45774 1.01792,1.44745 1.02626,1.43715 1.03458,1.426 1.04292,1.41398 1.05083,1.40197 1.05791,1.38867 1.06582,1.37581 1.07207,1.36207 1.07915,1.34792 1.08582,1.3329 1.09164,1.31746 1.09748,1.30202 1.10289,1.28614 1.10831,1.26907 1.11289,1.25199 1.11747,1.23453 1.12163,1.21652 1.1258,1.19807 1.12914,1.17915 1.13246,1.15993 1.13496,1.14015 1.13788,1.12008 1.13955,1.09952 1.14162,1.07868 1.14287,1.0574 1.14413,1.03565 1.14496,1.01364 1.14496,0.99142 1.14538,0.96851 1.14454,0.94556 1.1437,0.92209 1.14288,0.89833 1.14121,0.87443 1.13912,0.85006 1.13705,0.8254 1.13413,0.80043 1.13121,0.77533 1.12747,0.74993 1.12414,0.72415 1.11955,0.69829 1.11455,0.67207 1.10997,0.6456 1.10456,0.61909 1.09873,0.59228 1.09248,0.56525 1.08581,0.53805 1.07874,0.5106 1.07166,0.48322 1.06373,0.45543 1.05542,0.42771 1.04707,0.3997 1.03834,0.3716 1.02875,0.34354 1.01918,0.31515 1.00876,0.28687 0.99877,0.25826 0.98794,0.22981 0.97669,0.20142 0.96503,0.17258 0.95295,0.14402 0.94129,0.11526 0.92796,0.0867 0.91548,0.058 0.90171,0.0292 0.8884,6e-4 0.87382,-0.028 0.86007,-0.0566 0.84466,-0.0851 0.83008,-0.11383 0.81468,-0.142 0.79885,-0.17053 0.78302,-0.1988 0.76636,-0.22672 0.7497,-0.25504 0.73304,-0.2828 0.71554,-0.31064 0.69806,-0.33831 0.68056,-0.36572 0.66181,-0.39318 0.64392,-0.42033 0.62517,-0.44732 0.606,-0.47426 0.58726,-0.50065 0.5677,-0.52724 0.54769,-0.55319 0.52813,-0.57941 0.50813,-0.60506 0.48771,-0.6305 0.4669,-0.65577 0.44649,-0.6807 0.42525,-0.70549 0.40442,-0.7299 0.38276,-0.75401 0.36152,-0.77799 0.33987,-0.80133 0.31778,-0.82479 0.29614,-0.84762 0.27405,-0.87027 0.25157,-0.89254 0.22908,-0.91445 0.20699,-0.93617 0.18452,-0.95727 0.1616,-0.97825 0.13869,-0.99875 0.11579,-1.01887 0.0929,-1.03879 0.0704,-1.05817 0.0466,-1.07709 0.0242,-1.09575 8.4e-4,-1.11398 -0.0225,-1.13179 -0.0454,-1.14925 -0.0687,-1.16615 -0.092,-1.1828 -0.11496,-1.19888 -0.13786,-1.21463 -0.1616,-1.22998 -0.18409,-1.24496 -0.20742,-1.25912 -0.23033,-1.27327 -0.25323,-1.28657 -0.27613,-1.29987 -0.29864,-1.31274 -0.32154,-1.32475 -0.34402,-1.33634 -0.3661,-1.34748 -0.3886,-1.35865 -0.41108,-1.36851 -0.43275,-1.3788 -0.4544,-1.38825 -0.47648,-1.39682 -0.49813,-1.40541 -0.51937,-1.41355 -0.54021,-1.42128 -0.56144,-1.42771 -0.58226,-1.435 -0.60268,-1.44059 -0.62309,-1.44658 -0.64348,-1.45174 -0.66307,-1.45603 -0.68265,-1.46074 -0.7018,-1.46418 -0.72097,-1.46804 -0.74011,-1.47018 -0.75845,-1.47276 -0.77635,-1.4749 -0.79469,-1.47619 -0.81218,-1.47704 -0.82924,-1.47791 -0.84675,-1.4779 -0.86299,-1.47748 -0.87923,-1.47662 -0.89547,-1.47533 -0.91089,-1.47361 -0.9263,-1.47147 -0.94087,-1.4689 -0.95544,-1.46589 -0.97004,-1.46204 -0.98335,-1.4586 -0.99669,-1.45431 -1.0096,-1.44959 -1.02208,-1.44444 -1.0346,-1.43887 -1.04582,-1.43286 -1.05708,-1.42642 -1.06833,-1.41999 -1.07831,-1.41313 -1.08831,-1.40497 -1.0979,-1.39768 -1.10706,-1.38911 -1.1158,-1.38052 -1.1233,-1.37194 -1.13163,-1.3625 -1.13871,-1.35264 -1.14496,-1.34277 -1.15162,-1.33247 -1.15746,-1.32175 -1.16245,-1.31103 -1.16745,-1.29944 -1.17161,-1.28829 -1.17536,-1.27627 -1.1787,-1.26383 -1.18161,-1.25183 -1.18411,-1.23895 -1.18535,-1.22608 -1.18703,-1.21278 -1.18786,-1.19906 -1.18828,-1.18533 -1.18744,-1.17159 -1.18744,-1.15745 -1.18536,-1.14328 -1.18411,-1.12827 -1.18202,-1.11326 -1.1787,-1.09867 -1.17578,-1.08322 -1.17161,-1.06821 -1.16745,-1.05234 -1.16287,-1.03689 -1.15704,-1.02059 -1.15121,-1.00472 -1.14495,-0.98884 -1.1383,-0.97255 -1.13038,-0.95581 -1.12289,-0.93994 -1.11413,-0.92278 -1.10539,-0.90647 -1.09622,-0.88932 -1.08583,-0.87259 -1.07581,-0.85585 -1.06458,-0.8387 -1.05334,-0.82196 -1.04165,-0.80481 -1.02918,-0.78764 -1.01584,-0.77048 -1.00335,-0.75333 -0.9892,-0.73616 -0.97501,-0.71943 -0.96003,-0.70185 -0.94504,-0.68511 -0.92964,-0.66795 -0.91379,-0.6508 -0.89672,-0.63406 -0.88007,-0.6169 -0.86299,-0.60017 -0.84467,-0.58344 -0.82716,-0.56671 -0.80801,-0.54998 -0.78927,-0.53325 -0.76969,-0.51694 -0.75012,-0.50107 -0.72971,-0.48434 -0.70971,-0.46847 -0.68806,-0.4526 -0.66723,-0.43672 -0.64558,-0.42128 -0.62391,-0.4054 -0.60101,-0.39039 -0.57894,-0.37495 -0.5556,-0.35993 -0.53229,-0.34534 -0.50896,-0.33076 -0.48523,-0.31618 -0.46065,-0.30201 -0.43649,-0.28786 -0.41151,-0.27456 -0.38692,-0.2604 -0.36152,-0.24754 -0.33612,-0.23423 -0.31029,-0.22137 -0.28488,-0.20849 -0.25823,-0.19648 -0.232,-0.18447 -0.20577,-0.17246 -0.17865,-0.16045 -0.15204,-0.14972 -0.12495,-0.13856 -0.0979,-0.12742 -0.0708,-0.11754 -0.0429,-0.10682 -0.0154,-0.0974 0.0125,-0.0875 0.0404,-0.0781 0.0679,-0.0691 0.0958,-0.0605 0.12412,-0.0523 0.15161,-0.0442 0.18034,-0.0365 0.20825,-0.0287 0.23657,-0.0219 0.26448,-0.015 0.29322,-0.009 0.32112,-0.003 0.34902,0.003 0.37777,0.009 0.40525,0.0143 0.434,0.0185 0.46148,0.0236 0.48981,0.0275 0.51728,0.0309 0.5452,0.0347 0.57311,0.0378 0.60018,0.0408 0.62766,0.0429 0.65516,0.045 0.68222,0.0472 0.70931,0.048 0.73595,0.0498 0.76261,0.0498 0.78885,0.0506 0.81509,0.0511 0.84133,0.0502 0.86674,0.0498 0.89255,0.0493 0.91797,0.0476 0.94296,0.0463 0.96753,0.0442 0.99252,0.042 1.01626,0.0399 1.04083,0.0369 1.06375,0.0335 1.08748,0.0305 1.11038,0.0262 1.1333,0.0227 1.15537,0.018 1.17787,0.0129 1.1991,0.009 1.22034,0.003 1.24159,-0.003 1.26158,-0.007 1.2824,-0.0143 1.30156,-0.0206 1.32114,-0.027 1.33988,-0.0343 1.35862,-0.0408 1.37696,-0.0485 1.39402,-0.0562 1.41152,-0.0639 1.42817,-0.0721 1.44442,-0.0807 1.46026,-0.0888 1.47565,-0.0978 1.49066,-0.10682 1.50481,-0.11583 1.51857,-0.12527 1.5323,-0.13471 1.5448,-0.14457 1.55771,-0.15444 1.56937,-0.16474 1.58062,-0.17503 1.59144,-0.18533 1.60186,-0.19605 1.61144,-0.20721 1.62102,-0.2175 1.62935,-0.22866 1.63767,-0.23981 1.64517,-0.25096 1.65268,-0.26255 1.6585,-0.27413 1.66476,-0.28571 1.67058,-0.29687 1.67474,-0.30931 1.67933,-0.32089 1.68307,-0.33248 1.68599,-0.34491 1.6885,-0.3565 1.69057,-0.36894 1.69224,-0.38053 1.69265,-0.39296 1.69308,-0.40541 1.69265,-0.41698 1.69224,-0.42943 z" />
  </g>
</svg>
